<?xml version="1.0" encoding="utf-8"?>
<!-- Generator: Adobe Illustrator 26.2.1, SVG Export Plug-In . SVG Version: 6.00 Build 0)  -->
<svg version="1.1" id="Layer_1" xmlns="http://www.w3.org/2000/svg" xmlns:xlink="http://www.w3.org/1999/xlink" x="0px" y="0px"
	 viewBox="0 0 211.89 155.31" style="enable-background:new 0 0 211.89 155.31;" xml:space="preserve">
<style type="text/css">
	.st0{opacity:0.59;fill:#F9F5BA;}
	.st1{opacity:0.59;fill:#9BD2F2;}
	.st2{opacity:0.59;fill:#DCB3D4;}
	.st3{fill:none;stroke:#2D2121;stroke-width:12;stroke-miterlimit:10;}
	.st4{fill:#6FA385;}
	.st5{fill:#2C2020;}
	.st6{fill:#2D2121;}
	.st7{fill:#B5B5B6;}
	.st8{fill:#A5D9C8;}
	.st9{fill:#BADC9F;}
	.st10{fill:none;stroke:#2B2D29;stroke-width:4;stroke-miterlimit:10;}
	.st11{fill:none;stroke:#2D2121;stroke-width:4;stroke-miterlimit:10;}
	.st12{fill:#F69AA2;}
	.st13{fill:#F38484;stroke:#252825;stroke-width:0.5;stroke-miterlimit:10;}
	.st14{fill:none;stroke:#B0A7A7;stroke-width:5;stroke-miterlimit:10;}
	.st15{fill:none;stroke:#3A3A3A;stroke-width:5;stroke-miterlimit:10;}
	.st16{fill:#3A3A3A;stroke:#F59598;stroke-miterlimit:10;}
	.st17{fill:#3A3A3A;}
	.st18{fill:#F9F9FA;stroke:#F38484;stroke-width:4;stroke-miterlimit:10;}
	.st19{fill:none;stroke:#BFBABB;stroke-miterlimit:10;}
</style>
<path class="st13" d="M158.01,62.93L95.34,96.31c-2.29,1.22-5.14,0.35-6.36-1.94l-0.51-0.96c-1.16-2.18-0.34-4.88,1.84-6.04
	l62.87-33.49c2.15-1.15,4.83-0.33,5.98,1.82l0.67,1.25C160.98,59.11,160.16,61.78,158.01,62.93z"/>
<path class="st13" d="M156.06,54.7l-57.77-5.86c-0.93-0.09-1.6-0.92-1.51-1.85l0.48-4.71c0.09-0.93,0.92-1.6,1.85-1.51l53.91,5.47
	c3.05,0.31,5.28,3.04,4.97,6.09l-0.09,0.86C157.81,54.12,156.99,54.8,156.06,54.7z"/>
<circle class="st14" cx="43.97" cy="73.06" r="34.54"/>
<circle class="st14" cx="163.34" cy="113.53" r="34.54"/>
<circle class="st15" cx="163.34" cy="113.53" r="36.51"/>
<path class="st13" d="M165.2,118.88l-1.01,0.08c-2.35,0.18-4.41-1.58-4.59-3.93l-5.78-74.24c-0.18-2.35,1.58-4.41,3.93-4.59
	l1.01-0.08c2.35-0.18,4.41,1.58,4.59,3.93l5.78,74.24C169.31,116.64,167.55,118.7,165.2,118.88z"/>
<circle class="st15" cx="43.97" cy="73.06" r="36.65"/>
<path class="st13" d="M96.38,49.97L45,77.34c-1.52,0.81-3.42,0.23-4.23-1.29l-0.43-0.8c-1.16-2.19-0.34-4.9,1.85-6.07l50.19-26.73
	c0.5-0.27,1.12-0.08,1.38,0.42l3.04,5.71C97.07,49.09,96.88,49.71,96.38,49.97z"/>
<path class="st13" d="M173.83,28.58l-25.57,4.83c-2.01,0.38-3.33,2.32-2.95,4.33l0.14,0.76c0.29,1.55,1.78,2.56,3.33,2.27
	l26.42-4.99c0.16-0.03,0.27-0.19,0.24-0.35l-1.25-6.61C174.16,28.65,174,28.55,173.83,28.58z"/>
<path class="st13" d="M94.77,96.69l-7.91-0.42l4.1-77.46c0.1-1.98,1.79-3.49,3.77-3.39l1.14,0.06c3.31,0.18,5.85,3,5.68,6.31
	l-3.83,72.25C97.64,95.58,96.32,96.77,94.77,96.69z"/>
<path class="st16" d="M105.66,24.16L76.31,12.49c-0.28-0.11-0.42-0.43-0.31-0.71l0.41-1.02c1.77-4.46,6.87-6.66,11.33-4.89
	l29.02,11.54c0.28,0.11,0.42,0.43,0.31,0.71l-0.54,1.35C114.84,23.75,109.94,25.86,105.66,24.16z"/>
<path class="st13" d="M90.85,98.5L40.84,78.63c-2.4-0.96-3.58-3.68-2.62-6.08l0.49-1.23c0.51-1.29,1.97-1.92,3.26-1.4l55.12,21.91
	c1.1,0.44,1.64,1.69,1.2,2.79l-0.33,0.84C96.83,98.25,93.65,99.62,90.85,98.5z"/>
<path class="st16" d="M183.14,22.36l-0.8-0.42c-2.57-1.36-5.78-0.37-7.13,2.2l-5.22,9.88c-0.85,1.6-0.23,3.61,1.37,4.45l1.63,0.86
	c1.65,0.87,3.72,0.24,4.6-1.42l6.53-12.36C184.73,24.4,184.29,22.96,183.14,22.36z"/>
</svg>
