<?xml version="1.0" encoding="UTF-8"?><svg id="a" xmlns="http://www.w3.org/2000/svg" viewBox="0 0 270.02 188.34"><defs><style>.b{stroke:#b0a7a7;}.b,.c{fill:none;stroke-width:5px;}.b,.c,.d,.e,.f{stroke-miterlimit:10;}.c{stroke:#2e2021;}.g{fill:#fff;}.h{letter-spacing:0em;}.h,.i,.j,.k,.l{font-size:49.67px;}.i{letter-spacing:-.01em;}.d{fill:#2e2021;}.d,.e{stroke:#f59598;}.m{font-size:58.84px;}.e{fill:#2d1f1f;}.k{letter-spacing:.05em;}.l{letter-spacing:0em;}.f{fill:#f38484;stroke:#252825;stroke-width:.5px;}.n{fill:#231f20;font-family:Constantia, Constantia;}</style></defs><rect class="g" x=".08" width="269.94" height="188.34" rx="31.29" ry="31.29"/><text class="n" transform="translate(-1.81 125.74)"><tspan class="m" x="0" y="0">U</tspan><tspan class="l" x="43.75" y="0">r</tspan><tspan class="j" x="62.31" y="0">ba</tspan><tspan class="k" x="113.82" y="0">n</tspan></text><text class="n" transform="translate(137.94 180.62)"><tspan class="m" x="0" y="0">T</tspan><tspan class="i" x="36.08" y="0">r</tspan><tspan class="j" x="54.39" y="0">e</tspan><tspan class="h" x="78.19" y="0">k</tspan></text><g><path class="f" d="M168.47,72.65h62.73c2.44,0,4.42,1.98,4.42,4.42v.33c0,2.44-1.98,4.42-4.42,4.42h-62.5c-2.59,0-4.7-2.11-4.7-4.7h0c0-2.47,2-4.47,4.47-4.47Z" transform="translate(-14.33 83.08) rotate(-22.7)"/><g><path class="f" d="M179.38,49.5h47.67c3.07,0,5.56,2.49,5.56,5.56h0c0,.93-.75,1.68-1.68,1.68h-51.55c-.93,0-1.68-.75-1.68-1.68v-3.87c0-.93,.75-1.68,1.68-1.68Z" transform="translate(14.13 -38.63) rotate(11.14)"/><circle class="b" cx="128.63" cy="68.69" r="30.87"/><circle class="b" cx="231.5" cy="114.65" r="30.87"/><circle class="c" cx="231.5" cy="114.65" r="32.64"/><rect class="f" x="228.55" y="45.36" width="8.55" height="74.2" rx="4.27" ry="4.27" transform="translate(1.31 -3.61) rotate(.89)"/><circle class="c" cx="128.63" cy="68.69" r="32.76"/><path class="f" d="M127.47,55.59h50.24c.56,0,1.02,.46,1.02,1.02v5.57c0,.56-.46,1.02-1.02,1.02h-51.6c-1.73,0-3.13-1.4-3.13-3.13h0c0-2.48,2.01-4.49,4.49-4.49Z" transform="translate(-11.24 62.81) rotate(-22.7)"/><path class="f" d="M225.4,41.13h22.84c.17,0,.3,.13,.3,.3v5.95c0,.17-.13,.3-.3,.3h-23.7c-1.57,0-2.85-1.28-2.85-2.85h0c0-2.04,1.66-3.7,3.7-3.7Z" transform="translate(-3.11 22.1) rotate(-5.35)"/><path class="f" d="M173.69,21.46h0c3.31,0,6,2.69,6,6v63.73c0,1.55-1.26,2.8-2.8,2.8h-6.78V25.05c0-1.98,1.61-3.58,3.58-3.58Z" transform="translate(10.28 -24.87) rotate(8.38)"/><path class="e" d="M170.88,16.72h26.93c.3,0,.55,.25,.55,.55v.35c0,4.62-3.75,8.38-8.38,8.38h-27.28c-.3,0-.55-.25-.55-.55h0c0-4.82,3.91-8.73,8.73-8.73Z" transform="translate(29.38 -79.56) rotate(27.02)"/><path class="f" d="M122.76,77.27h52.52c1.19,0,2.15,.96,2.15,2.15h0c0,3.02-2.45,5.46-5.46,5.46h-47.03c-2.59,0-4.69-2.1-4.69-4.69v-.42c0-1.38,1.12-2.51,2.51-2.51Z" transform="translate(53.08 -58.77) rotate(27.02)"/><path class="d" d="M251.91,32.78h0c1.3,0,2.36,1.06,2.36,2.36v11.89c0,1.88-1.52,3.4-3.4,3.4h-.94c-1.82,0-3.29-1.48-3.29-3.29v-9.08c0-2.91,2.36-5.28,5.28-5.28Z" transform="translate(63.69 -130.38) rotate(33.21)"/></g></g></svg>